<?xml version="1.0" encoding="utf-8"?>
<!-- Generator: Adobe Illustrator 26.0.3, SVG Export Plug-In . SVG Version: 6.00 Build 0)  -->
<svg version="1.1" id="Layer_1" xmlns="http://www.w3.org/2000/svg" xmlns:xlink="http://www.w3.org/1999/xlink" x="0px" y="0px"
	 viewBox="0 0 277.2 272" style="enable-background:new 0 0 277.2 272;" xml:space="preserve">
<style type="text/css">
	.st0{enable-background:new    ;}
	.st1{fill:#FFFFFF;}
</style>
<g id="Layer_2_00000183249306792294720360000012949104456258853524_">
	<g id="Layer_5">
		<g class="st0">
			<path class="st1" d="M130.9,111.1c0,33-7.1,56.9-21.4,71.7c-14.2,14.8-37,22.2-68.4,22.2c-10.3,0-18.2-0.4-23.6-1.2v-36.2
				c6.6,1.2,13.2,1.8,19.9,1.8c16.3,0,28.9-3.4,37.8-10.1c8.9-6.7,13.7-17.4,14.4-31.9h-1.4c-3,5.5-6,9.5-8.9,12
				c-2.9,2.5-6.5,4.4-10.7,5.7c-4.2,1.3-9.5,2-15.8,2c-14.6,0-26.1-4.9-34.3-14.7c-8.2-9.8-12.4-23.3-12.4-40.4
				c0-18.7,5.3-33.4,16-44c10.7-10.6,25.3-15.9,43.8-15.9c20.6,0,36.6,6.9,47.9,20.6C125.2,66.4,130.9,85.9,130.9,111.1z M67.2,68.6
				c-5,0-9.1,1.8-12.2,5.4c-3.1,3.6-4.7,9.4-4.7,17.4c0,6.3,1.3,11.3,4,15.1c2.7,3.7,6.8,5.6,12.4,5.6c5,0,9.4-1.8,13.1-5.4
				c3.7-3.6,5.5-8,5.5-13.1c0-6.9-1.7-12.7-5.1-17.7C76.8,71.1,72.5,68.6,67.2,68.6z"/>
			<path class="st1" d="M215.3,92.1c9.7,0,18.5,2.3,26.3,6.8c7.8,4.5,13.9,10.9,18.2,19.1c4.3,8.2,6.5,17.7,6.5,28.5
				c0,18.9-5.7,33.3-17,43.4C237.9,200,220.8,205,197.7,205c-19.7,0-35.8-3-48.3-9.1v-37.4c6.7,3.1,14.3,5.6,22.7,7.6
				c8.4,2,15.7,3,21.8,3c8.5,0,15-1.8,19.5-5.4c4.5-3.6,6.8-8.9,6.8-15.9c0-6.5-2.3-11.5-6.9-15.1c-4.6-3.6-11.6-5.4-21-5.4
				c-7.2,0-14.9,1.3-23.2,4l-16.7-8.3l6.4-89.2H255v38h-57.5l-2.1,22.3c6-1.2,10.3-1.8,12.8-1.9C210.8,92.1,213.1,92.1,215.3,92.1z"
				/>
		</g>
	</g>
</g>
</svg>
