<svg xmlns="http://www.w3.org/2000/svg" viewBox="0 0 714.02 143.93"><defs><style>.cls-1{isolation:isolate;}.cls-2{fill:#ff5757;}</style></defs><g id="Layer_2" data-name="Layer 2"><g id="Layer_1-2" data-name="Layer 1"><g id="Layer_2-2" data-name="Layer 2"><g id="Layer_5" data-name="Layer 5"><g class="cls-1"><path class="cls-2" d="M536.35,116H509L525.88,35.8H553.4ZM529.2,18.18q0-7.29,4.21-11t11.78-3.75q6.45,0,9.95,2.58a8.65,8.65,0,0,1,3.5,7.4q0,7.07-4.11,10.93t-11.81,3.85Q529.21,28.15,529.2,18.18Z"/><path class="cls-2" d="M571,116,560.69,35.8h27.24l1.91,42.66a50.35,50.35,0,0,1-.56,8.35h.56a24.15,24.15,0,0,1,1.28-4.46q1.2-3.46,2.54-6.36T612.41,35.8h29.3L598.4,116Z"/><path class="cls-2" d="M670.93,117.38q-15,0-23.35-8.39t-8.35-23.31a60.07,60.07,0,0,1,5.91-26.92,42.45,42.45,0,0,1,16.2-18.19,45.29,45.29,0,0,1,23.81-6.19q13.44,0,21.16,6.09A19.58,19.58,0,0,1,714,56.67Q714,70.89,703,78.5t-32,7.6h-4.17v1.14q0,10.47,11.6,10.47a37.22,37.22,0,0,0,11-1.66,73.93,73.93,0,0,0,12.24-5.28v19.39a65.88,65.88,0,0,1-14.79,5.63A70.72,70.72,0,0,1,670.93,117.38Zm11.18-64.46q-4.32,0-8.07,4.92A22.6,22.6,0,0,0,669.52,69h2.05q7.71,0,12.1-2.94a8.92,8.92,0,0,0,4.38-7.74,5.47,5.47,0,0,0-1.41-3.82A5.85,5.85,0,0,0,682.11,52.92Z"/></g><g class="cls-1"><path class="cls-2" d="M51.48,109.9V67.16q0-7.81-2.25-11.79a7.69,7.69,0,0,0-7.23-4q-6.84,0-9.89,5.46t-3,18.75v34.3H2V31.54h20.4l3.39,9.68h1.59A21.48,21.48,0,0,1,37,32.92a33.92,33.92,0,0,1,14.08-2.76q13,0,20.23,7.54t7.22,21.23v51Z"/><path class="cls-2" d="M96.37,12Q96.37,6,99.76,3t10.93-3q7.53,0,11,3t3.46,9q0,11.9-14.45,11.89T96.37,12ZM124.1,109.9h-27V31.54h27Z"/><path class="cls-2" d="M192.44,109.9V67.16q0-7.81-2.25-11.79a7.69,7.69,0,0,0-7.23-4q-6.84,0-9.89,5.46T170,75.6v34.3H143V31.54h20.4l3.39,9.68h1.59a21.43,21.43,0,0,1,9.58-8.3A33.9,33.9,0,0,1,192,30.16q13,0,20.23,7.54t7.23,21.23v51Z"/><path class="cls-2" d="M275.71,111.29q-19.57,0-30.39-10.41T234.49,71.24q0-19.84,10-30.47t28.63-10.61q17.72,0,27.36,9.23T310.16,66V78H261.81a13.39,13.39,0,0,0,4.81,10.3q4.53,3.74,12.34,3.74a59.6,59.6,0,0,0,13.11-1.35,64.85,64.85,0,0,0,13-4.6v19.44A47.89,47.89,0,0,1,291.9,110,91,91,0,0,1,275.71,111.29Zm-1.59-62.74a11.29,11.29,0,0,0-8,3q-3.21,3-3.77,9.44H285.6a13.47,13.47,0,0,0-3.21-9.06A10.62,10.62,0,0,0,274.12,48.55Z"/><path class="cls-2" d="M363.83,89.91a40.13,40.13,0,0,0,13.07-2.69v19.71a52.36,52.36,0,0,1-10.41,3.35,58.76,58.76,0,0,1-11.58,1q-13.64,0-19.65-6.68t-6-20.51V51.8h-9.48v-11l12-8.51,7-16.46H356.5v15.7h19.23V51.8H356.5V82.31Q356.5,89.92,363.83,89.91Z"/><path class="cls-2" d="M381.12,31.54h28.5l13.28,45a44.42,44.42,0,0,1,1.31,8.5h.55a48,48,0,0,1,1.66-8.37l13.63-45.09h27.6l-31,83.34q-6,15.91-14.63,22.48t-22.65,6.57a54.71,54.71,0,0,1-11.07-1.17V121.52a37.77,37.77,0,0,0,8.37.83A13.66,13.66,0,0,0,403,121a14.34,14.34,0,0,0,4.7-3.91A34.21,34.21,0,0,0,412,108.8Z"/></g><rect class="cls-2" y="122.04" width="401.47" height="21.77"/><polygon class="cls-2" points="1.63 122.24 2.42 121.19 406.89 121.19 406.89 122.24 1.63 122.24"/><polygon class="cls-2" points="441.24 30.44 511.86 30.44 499.85 49.98 461.38 49.98 455.89 66.26 488.42 66.26 478.69 80.91 449.56 80.91 441.24 30.44"/><polygon class="cls-2" points="0 122.04 0 121.19 2.42 121.19 1.79 122.04 0 122.04"/><polygon class="cls-2" points="463.17 119.99 451.77 142.78 711.52 142.78 711.52 119.99 463.17 119.99"/></g></g></g></g></svg>